<?xml version="1.0" encoding="UTF-8" standalone="no"?>
<!DOCTYPE svg PUBLIC "-//W3C//DTD SVG 1.1//EN" "http://www.w3.org/Graphics/SVG/1.1/DTD/svg11.dtd">
<svg width="100%" height="100%" viewBox="0 0 572 88" version="1.1" xmlns="http://www.w3.org/2000/svg" xmlns:xlink="http://www.w3.org/1999/xlink" xml:space="preserve" xmlns:serif="http://www.serif.com/" style="fill-rule:evenodd;clip-rule:evenodd;stroke-linejoin:round;stroke-miterlimit:2;">
    <g transform="matrix(1,0,0,1,-1626.955873,-1186.503521)">
        <g transform="matrix(1,0,0,1,1292,1028)">
            <path d="M885.87,195.962C885.582,196.556 885.534,196.515 882.082,203.289C879.882,207.605 879.331,207.282 874.059,217.274C872.321,220.567 867.584,228.2 865.665,231.597C863.48,235.465 862.9,235.95 860.499,236.023C853.563,236.234 853.048,235.839 852.542,235.45C851.68,234.788 839.035,214.121 836.222,209.66C830.613,200.768 829.989,199.401 829.556,198.452C829.219,197.713 829.32,197.509 828.51,197.428C827.018,197.28 827.393,198.024 827.516,199.501C828.023,205.641 827.696,232.596 827.808,240.495C827.812,240.742 827.849,243.352 827.789,243.586C827.477,244.797 825.72,244.829 825.513,244.833C824.472,244.853 824.485,244.805 812.503,244.791C812.205,244.791 809.366,244.788 808.826,244.192C808.316,243.629 808.375,243.513 808.266,219.5C808.244,214.858 808.008,163.194 808.371,161.473C808.691,159.957 810.313,159.902 810.527,159.895C811.405,159.865 811.393,159.928 821.506,159.847C822.684,159.838 825.211,159.401 826.54,161.471C829.337,165.828 837.057,178.291 837.762,179.331C838.709,180.731 842.44,186.936 844.713,190.362C846.446,192.977 851.164,201.891 856.059,208.813C856.782,209.836 856.517,210.2 857.54,210.38C858.843,210.609 859.605,208.988 859.804,208.682C862.123,205.126 886.969,161.341 888.443,160.431C889.469,159.799 889.627,159.701 903.488,159.877C906.765,159.918 906.14,161.241 906.175,164.502C906.235,170.182 905.961,170.165 906.403,235.501C906.458,243.606 906.492,244.134 905.529,244.553C904.499,245.001 904.461,244.958 891.491,244.764C891.195,244.759 888.356,244.717 887.833,244.187C887.27,243.616 887.314,243.492 887.218,225.503C887.143,211.51 887.164,211.533 887.274,197.547C887.277,197.238 887.39,196.879 887.22,196.621C887.188,196.573 887.133,196.709 886.528,196.414C886.157,196.232 886.232,196.139 885.87,195.962Z" style="fill:rgb(38,39,39);"/>
            <path d="M699.602,241.425C699.771,241.676 701.7,243.624 700.708,244.736C700.248,245.252 700.109,244.99 691.498,244.914C681.87,244.829 680.305,244.989 679.542,244.435C678.033,243.34 665.606,223.007 664.268,221.764C663.343,220.906 663.008,220.595 648.515,220.914C645.454,220.982 646.045,223.872 646.034,225.491C645.974,234.638 645.728,234.66 646.009,242.504C646.092,244.826 644.621,244.781 643.5,244.773C642.218,244.764 627.75,244.666 627.484,244.63C625.778,244.401 625.705,243.14 625.685,242.493C625.519,237.094 625.562,168.9 625.566,162.5C625.568,159.58 626.577,159.802 629.497,159.807C640.003,159.826 639.989,159.857 650.503,159.829C667.356,159.785 676.498,158.857 687.151,165.983C688.101,166.619 694.046,171.483 696.485,176.508C700.157,184.073 700.947,189.881 699.2,198.432C698.924,199.783 697.561,206.454 689.817,212.887C685.288,216.649 682.496,215.922 683.401,218.543C683.446,218.676 686.593,222.925 688.384,225.579C690.752,229.09 698.697,240.163 699.602,241.425ZM676.368,199.39C678.387,196.759 679.101,194.955 679.215,191.486C679.239,190.767 679.389,186.206 677.143,182.726C673.178,176.583 665.547,176.494 665.501,176.488C661.485,175.966 647.613,176.326 647.476,176.353C646.355,176.571 645.991,177.467 645.931,177.614C645.618,178.385 645.879,199.582 645.903,201.492C645.951,205.381 647.491,204.846 650.498,204.838C667.199,204.794 671.095,205.182 676.368,199.39Z" style="fill:rgb(38,40,40);"/>
            <path d="M713.878,216.451C713.138,208.69 713.27,208.695 713.297,190.5C713.302,187.521 713.274,162.108 713.391,161.481C713.596,160.38 714.474,160.01 714.619,159.949C714.953,159.808 720.025,159.839 720.495,159.842C731.99,159.914 733.347,159.466 733.813,161.425C734.09,162.592 733.456,201.706 734.191,212.526C735.475,231.436 756.438,231.774 763.736,225.801C769.939,220.725 770.438,213.093 770.663,211.522C771.23,207.584 770.79,161.965 770.861,161.536C770.893,161.349 771.099,160.109 772.542,159.855C773.642,159.662 773.649,159.789 786.497,159.828C789.663,159.837 790.778,159.36 791.011,162.526C791.158,164.519 791.118,164.519 791.124,187.498C791.13,210.59 792.438,218.455 785.055,231.224C783.12,234.571 777.778,240.314 771.304,243.033C761.268,247.247 741.251,248.25 728.742,240.121C723.955,237.01 721.889,234.192 721.424,233.557C716.809,227.259 715.031,223.138 713.878,216.451Z" style="fill:rgb(38,38,39);"/>
            <path d="M427.892,213.471C427.864,212.833 427.653,207.956 427.648,205.499C427.642,202.139 427.591,177.017 427.725,163.502C427.74,162.005 427.483,159.957 429.521,159.846C429.583,159.843 444.465,159.799 445.48,159.867C448.592,160.075 447.995,162.118 447.984,164.513C447.982,165.072 447.961,170.023 447.993,171.505C448.11,176.809 447.929,191.731 447.942,192.502C448.279,212.057 446.651,218.98 455.322,225.739C462.01,230.951 481.494,233.037 484.537,212.504C485.227,207.85 484.731,162.225 484.892,161.546C485.195,160.27 485.235,160.096 486.533,159.889C486.628,159.874 501.586,159.824 502.486,159.873C505.713,160.049 505.091,161.284 505.1,164.503C505.218,205.433 505.073,208.688 504.903,212.526C504.371,224.509 498.87,231.206 496.473,234.477C492.651,239.692 483.035,245.62 471.473,246.107C455.236,246.791 449.317,243.356 445.486,241.528C441.233,239.499 435.441,234.706 432.418,228.543C428.886,221.341 428.544,220.536 427.892,213.471Z" style="fill:rgb(38,38,39);"/>
            <path d="M334.957,202.507C335.168,198.243 335.208,197.876 335.252,197.475C337.272,178.947 348.961,170.354 351.353,168.328C366.121,155.82 387.201,158.489 391.531,159.329C403.005,161.554 408.122,165.613 412.604,169.371C416.131,172.327 416.552,172.889 416.546,173.501C416.533,174.853 411.307,178.707 408.807,180.852C405.97,183.287 404.269,185.318 402.414,184.666C401.471,184.334 395.374,176.168 382.492,175.716C368.317,175.219 356.759,185.134 355.834,199.526C355.623,202.798 354.639,213.142 364.666,222.317C374.15,230.996 387.48,229.9 394.63,225.745C397.164,224.273 397.076,224.175 399.471,222.465C401.814,220.794 402.921,218.721 404.449,219.598C405.888,220.424 414.305,228.335 415.414,229.58C417.092,231.463 416.484,231.908 414.713,233.707C408.271,240.25 402.924,241.725 400.561,242.65C382.527,249.713 360.117,246.281 347.134,232.86C334.247,219.537 334.983,203.164 334.957,202.507Z" style="fill:rgb(38,38,39);"/>
            <path d="M607.146,171.519C607.113,173.32 607.414,175.473 604.655,179.606C600.694,185.541 590.356,188.484 583.105,179.828C577.516,173.156 582.282,158.008 595.478,158.808C600.427,159.107 603.436,162.733 604.689,164.363C604.864,164.591 605.577,165.519 606.35,167.551C607.075,169.458 606.884,169.496 607.146,171.519Z" style="fill:rgb(220,38,38);"/>
            <path d="M517.831,208.455C517.343,202.485 517.083,202.479 517.825,196.549C518.539,190.849 521.513,183.332 523.823,179.698C526.989,174.718 529.516,172.112 534.259,168.209C538.691,164.563 540.971,163.683 542.238,163.012C550.256,158.763 561.57,158.411 565.498,158.548C569.843,158.699 576.095,159.86 576.333,159.927C576.639,160.014 577.402,160.965 577.247,161.448C577.114,161.863 574.469,165.646 574.183,171.486C574.059,174.041 574.279,175.405 574.273,175.477C574.124,177.439 571.907,176.166 569.445,175.881C563.296,175.169 560.483,175.256 554.469,177.419C539.706,182.731 535.673,199.734 539.422,211.525C542.336,220.688 548.605,224.3 548.63,224.318C562.712,234.417 583.928,228.167 589.559,211.522C593.287,200.501 589.033,194.143 590.662,192.688C591.812,191.66 598.712,193.493 605.284,188.222C607.382,186.54 608.335,185.057 609.227,187.604C614.039,201.357 611.804,218.759 602.079,230.126C592.455,241.376 578.848,244.382 577.564,244.748C568.337,247.372 546.618,247.155 533.326,235.706C520.387,224.56 518.751,213.999 517.831,208.455Z" style="fill:rgb(37,38,38);"/>
        </g>
    </g>
</svg>
