<?xml version="1.0" encoding="UTF-8" standalone="no"?>
<!DOCTYPE svg PUBLIC "-//W3C//DTD SVG 1.1//EN" "http://www.w3.org/Graphics/SVG/1.1/DTD/svg11.dtd">
<svg width="100%" height="100%" viewBox="0 0 318 364" version="1.1" xmlns="http://www.w3.org/2000/svg" xmlns:xlink="http://www.w3.org/1999/xlink" xml:space="preserve" xmlns:serif="http://www.serif.com/" style="fill-rule:evenodd;clip-rule:evenodd;stroke-linejoin:round;stroke-miterlimit:2;">
    <g transform="matrix(1,0,0,1,-1335.386264,-1048.398738)">
        <g transform="matrix(1,0,0,1,1292,1028)">
            <path d="M92.898,316.434C92.374,309.458 92.955,303.949 100.416,296.413C102.731,294.074 101.659,292.967 99.917,289.307C97.345,283.906 87.755,262.704 87.648,262.438C84.162,253.748 76.905,239.706 71.488,226.506C70.559,224.241 69.662,224.416 68.514,224.576C67.478,224.72 61.481,225.555 55.659,222.204C40.848,213.679 40.129,196.679 49.825,186.804C52.282,184.302 57.177,181.455 60.564,180.756C68.039,179.215 69.802,182.183 71.329,178.419C72.249,176.151 89.801,136.926 90.393,135.453C94.761,124.588 101.297,111.628 101.412,110.488C101.722,107.411 95.514,105.722 93.336,95.534C90.833,83.82 99.114,75.861 99.525,75.526C101.843,73.636 106.347,69.733 112.459,69.148C122.192,68.216 126.626,72.31 128.503,73.496C132.541,76.049 132.28,79.297 136.409,77.305C139.19,75.964 159.223,66.829 167.379,63.24C203.106,47.52 203.928,47.902 204.463,46.484C205.443,43.887 201.858,33.342 213.673,24.747C223.496,17.601 233.915,20.972 237.27,22.91C251.292,31.009 249.208,44.289 249.214,44.503C249.294,47.589 250.756,47.26 261.297,51.948C288.359,63.985 288.313,64.078 290.678,65.099C316.446,76.226 316.054,77.163 318.42,77.756C321.253,78.467 320.848,76.027 327.689,71.823C336.209,66.587 345.719,70.408 346.401,70.725C365.729,79.707 362.834,100.705 351.784,108.903C340.336,117.396 329.954,111.754 327.591,111.159C325.113,110.534 324.617,112.095 313.854,122.855C304.26,132.445 302.033,134.921 294.848,141.877C280.691,155.582 277.91,159.334 276.497,159.348C275.771,159.355 274.994,158.79 271.189,154.786C268.95,152.432 270.418,151.849 275.659,146.663C284.757,137.66 285.22,137.844 285.273,136.489C285.334,134.972 282.981,133.574 280.425,131.595C266.056,120.472 248.812,115.528 235.531,114.209C232.171,113.876 231.861,114.683 231.864,117.503C231.882,135.43 232.044,135.697 231.392,136.396C230.431,137.426 222.95,136.963 222.477,136.532C221.505,135.645 221.861,134.624 221.694,120.495C221.642,116.088 222.474,113.769 218.476,114.248C203.591,116.033 199.627,118.282 195.558,119.67C187.567,122.396 177.313,128.9 174.311,131.246C170.59,134.154 168.344,135.508 169.242,137.629C169.662,138.622 179.817,148.2 182.178,150.793C184.353,153.181 183.302,153.854 179.646,157.64C177.755,159.599 177.184,159.701 175.177,157.868C174.799,157.522 171.87,154.849 170.51,153.49C166.753,149.735 166.875,149.641 163.113,145.903C160.776,143.581 160.068,144.516 158.027,147.109C153.129,153.328 147.723,161.262 143.246,176.431C141.535,182.231 139.055,195.267 140.437,196.565C141.203,197.286 143.55,197.064 150.505,197.14C160.536,197.25 161.471,196.966 162.143,198.59C162.21,198.752 162.437,205.664 162.195,206.386C161.742,207.741 159.37,207.451 153.5,207.468C141.757,207.502 140.919,206.512 140.342,208.442C140.058,209.394 141.754,233.639 157.379,254.589C159.046,256.824 160.467,260.213 163.088,258.007C163.733,257.464 163.697,257.447 167.999,252.987C175.64,245.066 176.387,244.025 178.44,245.575C178.795,245.843 181.973,249.332 182.263,249.687C183.923,251.714 183.457,252.313 179.824,255.827C169.12,266.18 168.873,266.222 168.873,267.502C168.872,269.208 172.157,270.946 176.698,274.225C189.777,283.671 205.997,288.28 212.545,289.177C214.382,289.428 220.425,290.618 221.453,289.459C222.189,288.629 221.567,287.13 221.802,271.509C221.864,267.404 223.435,267.831 226.503,267.751C228.731,267.693 231.165,267.557 231.633,268.397C232.258,269.519 232.168,271.163 232.177,287.512C232.177,287.951 231.888,290.34 234.477,290.109C251.777,288.57 262.252,283.184 267.546,280.584C269.026,279.857 277.327,275.343 281.729,271.798C284.588,269.495 285.894,268.521 283.728,266.291C283.058,265.6 277.384,259.755 275.292,257.721C273.767,256.239 273.817,256.208 272.316,254.683C270.309,252.642 269.174,252.282 271.036,250.096C271.361,249.715 274.336,246.221 275.58,245.79C276.693,245.404 277.298,245.79 285.261,253.729C286.224,254.689 295.463,263.901 297.312,265.702C303.898,272.119 303.798,272.201 310.456,278.546C315.423,283.28 315.036,283.65 324.477,292.525C327.702,295.555 328.15,292.22 334.471,291.287C343.523,289.953 348.618,293.595 349.623,294.314C350.756,295.124 359.085,300.604 360.239,309.535C362.556,327.481 347.298,334.277 342.43,335.096C329.635,337.249 322.375,328.966 321.172,327.861C318.669,325.561 318.217,327.001 312.537,329.577C307.677,331.782 274.244,346.946 251.539,356.581C248.177,358.008 249.334,359.259 249.292,363.497C249.174,375.413 237.909,387.203 221.442,383.739C216.376,382.674 209.456,377.729 206.488,371.506C202.398,362.932 205.796,359.594 203.462,357.543C202.065,356.316 201.884,356.606 182.354,347.821C178.033,345.878 178.014,345.975 173.696,344.051C167.535,341.305 167.745,340.903 152.578,334.318C136.729,327.436 136.781,327.342 135.376,326.814C133.561,326.134 132.493,327.761 131.532,328.535C128.681,330.827 128.872,331.086 125.661,332.814C114.142,339.014 96.676,334.444 92.898,316.434ZM211.713,73.659C211.612,73.793 208.949,77.582 208.341,78.385C203.312,85.028 188.543,106.581 185.309,110.371C185.17,110.534 183.913,112.006 183.754,112.551C183.656,112.883 184.153,113.655 184.424,113.693C186.39,113.973 185.898,112.219 198.403,108.206C204.389,106.285 211.338,105.129 216.526,104.782C217.647,104.708 220.063,104.776 220.911,103.916C222.104,102.706 221.508,102.407 221.69,82.502C221.712,80.109 221.656,68.405 221.563,67.494C221.544,67.307 221.392,65.803 220.629,65.341C217.528,63.462 216.639,66.985 211.713,73.659ZM117.887,266.562C118.624,261.847 119.701,255.523 119.864,254.564C120.951,248.187 121.497,248.117 120.757,246.365C119.963,244.486 107.159,236.715 99.763,231.148C96.557,228.735 94.266,227.427 93.782,227.095C89.98,224.489 89.964,224.525 89.639,224.292C81.957,218.764 81.409,219.26 80.891,219.85C80.123,220.725 81.898,224.252 81.925,224.31C83.974,228.796 83.8,228.848 85.88,233.318C90.706,243.689 92.929,249.261 93.889,251.329C94.838,253.371 94.798,253.368 95.725,255.403C102.378,270.01 102.321,270.025 102.937,271.276C106.984,279.487 109.653,286.488 110.992,289.233C112.081,291.463 113.229,290.529 113.395,290.395C113.838,290.035 114.641,285.767 114.791,284.551C115.843,276.007 116.557,275.121 117.887,266.562ZM315.947,310.52C316.304,308.067 316.017,308 316.994,305.708C318.028,303.283 319.854,302.497 316.2,298.8C305.053,287.525 297.218,280.059 295.539,278.459C294.558,277.524 293.499,275.881 291.627,276.745C290.817,277.119 287.592,279.922 287.255,280.215C284.007,283.038 277.007,287.414 274.55,288.598C265.224,293.093 265.367,293.425 255.548,296.654C242.931,300.805 234.126,299.911 232.857,300.959C231.796,301.835 232.335,302.168 232.113,335.499C232.087,339.357 231.671,340.189 234.626,341.049C240.977,342.898 243.611,347.686 244.692,348.146C245.366,348.434 246.011,348.708 253.364,345.183C266.584,338.843 267.342,338.612 275.356,335.172C277.393,334.297 292.811,327.679 300.624,323.786C303.675,322.266 311.169,319.5 313.756,317.919C316.196,316.427 315.86,315.939 315.947,310.52ZM148.521,287.522C142.451,293.47 142.801,293.815 136.432,299.424C135.039,300.65 133.855,301.25 135.232,303.63C139.11,310.329 136.592,315.413 138.711,317.238C140.148,318.476 143.114,318.629 158.296,325.931C172.344,332.687 190.618,340.153 200.316,344.877C203.316,346.338 208.89,349.548 209.583,347.548C209.891,346.658 210.2,345.766 203.741,337.326C203.141,336.542 190.454,318.47 188.273,315.677C186.93,313.959 174.499,296.295 172.593,293.437C171.733,292.147 164.299,280.999 161.279,277.703C158.386,274.545 158.094,277.907 148.521,287.522ZM103.326,170.258C118.824,159.039 120.903,158.982 121.054,156.464C121.243,153.296 115.762,123.41 115.237,120.547C114.963,119.049 114.715,115.424 113.789,114.258C111.127,110.907 108.553,119.5 106.328,124.422C93.932,151.85 94.341,152.015 93.199,154.368C89.385,162.23 84.589,174.77 80.69,182.591C80.583,182.806 79.186,185.608 81.5,185.482C82.234,185.443 84.383,183.839 84.614,183.667C85.851,182.745 88.372,180.959 88.667,180.733C90.942,178.986 102.828,170.633 103.326,170.258ZM137.179,238.63C136.017,235.043 136.169,235.016 136.057,234.709C135.239,232.468 134.248,234.009 134.162,234.142C133.886,234.572 133.611,234.999 133.576,240.503C133.56,243.063 135.011,243.551 136.407,244.654C140.141,247.608 140.643,248.984 141.183,247.46C141.307,247.111 140.436,245.676 140.349,245.532C138.373,242.274 138.51,242.219 137.179,238.63ZM137.178,95.445C136.752,97.277 136.898,97.32 135.548,100.52C134.206,103.703 135.233,104.065 139.092,107.901C140.656,109.454 158.429,127.116 158.663,127.299C160.756,128.931 161.897,126.228 163.747,123.673C164.546,122.571 191.699,84.399 193.76,81.682C194.838,80.262 206.081,64.142 207.845,61.744C208.011,61.518 209.362,59.683 209.251,58.536C209.047,56.435 206.653,57.103 206.41,57.171C206.164,57.239 206.17,57.252 181.652,67.86C173.237,71.501 173.39,71.817 163.668,75.893C156.029,79.095 156.181,79.405 148.552,82.613C138.439,86.866 138.387,86.95 137.884,87.753C137.484,88.394 137.493,90.278 137.494,90.5C137.506,92.988 137.39,92.971 137.178,95.445ZM125.888,223.553C127.377,213.167 129.224,208.628 127.481,207.535C127.069,207.277 124.741,207.285 124.502,207.286C100.712,207.373 92.005,207.195 89.473,207.215C87.358,207.232 86.591,207.601 87.442,209.529C87.924,210.619 94.491,215.132 97.601,217.353C113.814,228.928 113.994,228.636 115.39,229.659C120.146,233.142 120.118,233.161 120.534,233.458C121.545,234.179 122.305,235.326 123.39,235.101C124.315,234.909 124.49,234.628 125.888,223.553ZM127.095,273.431C124.758,285.908 123.423,291.719 124.907,293.078C126.965,294.962 130.33,290.732 135.649,285.658C140.597,280.937 145.03,275.438 147.494,273.493C151.577,270.27 151.376,269.046 151.295,268.554C151.159,267.727 151.034,267.714 143.145,261.971C142.299,261.355 135.512,256.414 132.653,254.163C131.428,253.198 130.744,254.296 130.631,254.573C130.048,255.993 130.132,256.025 127.095,273.431ZM128.072,134.563C128.263,135.814 130.515,148.151 130.628,148.433C131.449,150.482 134.485,147.774 134.62,147.676C141.013,142.997 141.078,143.098 141.633,142.691C142.188,142.285 142.205,142.323 148.722,137.836C149.798,137.095 151.922,136.329 151.407,134.541C151.251,134 146.928,129.867 146.521,129.478C128.329,112.081 127.921,110.316 125.402,111.352C123.856,111.988 124.853,115.891 127.175,129.556C127.601,132.063 127.613,132.037 128.072,134.563ZM138.415,161.465C138.558,161.159 140.073,157.916 140.029,157.571C140.011,157.429 139.745,157.484 139.641,157.385C139.519,157.268 139.545,156.988 139.381,156.952C138.662,156.792 136.648,158.249 136.435,158.403C135.111,159.361 133.608,160.472 133.35,161.459C133.064,162.553 133.794,169.256 133.833,169.32C134.386,170.243 135.346,169.525 135.449,169.447C135.594,169.339 136.155,166.943 138.415,161.465ZM100.497,196.924C102.574,196.931 126.414,197.013 126.465,197.008C129.206,196.714 128.348,195.333 126.73,184.458C126.315,181.663 125.793,179.664 124.839,172.456C124.801,172.174 124.42,169.293 124.071,168.99C123.387,168.396 122.462,169.051 122.349,169.131C121.637,169.634 115.291,174.125 113.414,175.374C111.534,176.626 91.533,190.929 90.605,191.636C88.654,193.122 87.002,194.289 87.106,195.558C87.269,197.528 90.515,196.903 100.497,196.924ZM207.299,324.648C209.807,327.983 217.376,339.393 218.724,340.119C219.729,340.659 221.703,340.821 221.837,338.538C221.993,335.9 221.516,335.899 221.867,305.497C221.871,305.177 221.907,302.035 221.485,301.511C219.218,298.697 210.538,301.834 192.283,293.995C189.009,292.589 188.924,292.788 185.46,290.582C185.054,290.323 183.53,289.463 183.498,289.458C183.268,289.421 181.436,289.596 183.723,292.368C186.328,295.526 186.821,296.272 195.096,307.789C203.242,319.127 203.192,319.154 205.652,322.387C205.788,322.565 206.454,323.441 207.299,324.648ZM315.917,95.443C315.394,89.037 315.772,89.02 315.667,88.472C315.389,87.012 313.725,86.228 311.597,85.282C285.723,73.773 285.727,73.791 275.611,69.253C254.558,59.808 254.517,59.908 252.698,59.061C247.266,56.529 246.223,54.872 243.727,57.702C239.597,62.387 239.14,61.861 233.451,64.41C232.276,64.937 231.99,66.349 231.949,66.554C231.864,66.973 231.917,101.518 232.108,102.585C232.627,105.492 234.255,103.702 247.56,106.212C259.572,108.477 272.931,114.723 279.303,118.824C291.508,126.677 291.259,129.024 293.512,128.534C294.538,128.311 295.946,125.751 313.75,108.765C318.043,104.669 319.231,104.184 318.131,101.665C316.92,98.889 316.768,98.951 315.917,95.443ZM179.776,220.394C174.658,205.684 174.961,194.228 181.63,179.563C185.648,170.728 195.041,161.28 202.462,157.434C207.561,154.79 218.163,149.345 234.449,151.823C250.034,154.194 259.834,163.606 260.63,164.368C277.843,180.866 277.893,198.636 277.086,207.461C276.722,211.45 274.233,220.217 271.783,224.651C270.266,227.396 267.677,232.464 263.622,236.617C249.151,251.433 233.421,252.337 229.508,252.628C218.28,253.461 206.763,248.975 201.697,246.136C186.086,237.39 180.92,223.123 179.776,220.394Z" style="fill:rgb(220,38,38);"/>
        </g>
    </g>
</svg>
